<?xml version="1.0" encoding="UTF-8" standalone="no"?>
<svg
   xmlns:dc="http://purl.org/dc/elements/1.1/"
   xmlns:cc="http://creativecommons.org/ns#"
   xmlns:rdf="http://www.w3.org/1999/02/22-rdf-syntax-ns#"
   xmlns:svg="http://www.w3.org/2000/svg"
   xmlns="http://www.w3.org/2000/svg"
   xmlns:sodipodi="http://sodipodi.sourceforge.net/DTD/sodipodi-0.dtd"
   xmlns:inkscape="http://www.inkscape.org/namespaces/inkscape"
   width="145"
   height="70"
   viewBox="0 0 228 111"
   version="1.1"
   id="svg10"
   sodipodi:docname="emporio-armani (1).svg"
   inkscape:version="0.92.2 (5c3e80d, 2017-08-06)"
   fill="#FFF">
  <metadata
     id="metadata16">
    <rdf:RDF>
      <cc:Work
         rdf:about="">
        <dc:format>image/svg+xml</dc:format>
        <dc:type
           rdf:resource="http://purl.org/dc/dcmitype/StillImage" />
        <dc:title></dc:title>
      </cc:Work>
    </rdf:RDF>
  </metadata>
  <defs
     id="defs14" />
  <sodipodi:namedview
     pagecolor="#ffffff"
     bordercolor="#666666"
     borderopacity="1"
     objecttolerance="10"
     gridtolerance="10"
     guidetolerance="10"
     inkscape:pageopacity="0"
     inkscape:pageshadow="2"
     inkscape:window-width="1131"
     inkscape:window-height="480"
     id="namedview12"
     showgrid="false"
     fit-margin-top="0"
     fit-margin-left="0"
     fit-margin-right="0"
     fit-margin-bottom="0"
     inkscape:zoom="0.0944"
     inkscape:cx="1146.7428"
     inkscape:cy="555.80645"
     inkscape:window-x="2229"
     inkscape:window-y="135"
     inkscape:window-maximized="0"
     inkscape:current-layer="svg10" />
  <path
     d="M 54.848889,0.916 H 0.22388885 C -1.5321112,10.344 7.6178888,14.041 7.6178888,14.041 H 65.940889 Z m 15.932,18.998 h -54.626 c -1.756,9.428 7.394,13.125 7.394,13.125 h 58.323 z M 227.28789,0.916 h -54.625 l -11.092,13.125 h 58.322 c 0.003,0 9.152,-3.697 7.395,-13.125 z m -70.556,18.998 -11.092,13.125 h 58.322 c 0,0 9.15,-3.697 7.395,-13.125 z m -15.933,18.999 -4.89,5.786 c -1.293,-1.264 -3.614,-3.643 -5.063,-5.786 H 93.489889 c -0.245,2.467 -0.575,4.794 -1.004,6.831 l -5.772,-6.831 h -54.627 c -1.756,9.427 7.395,13.125 7.395,13.125 H 188.02989 c 0,0 9.15,-3.697 7.395,-13.125 z m -12.386,-5.874 -4.424,-13.125 H 93.910889 c 0.069,2.056 0.173,4.024 0.173,5.869 0,2.355 -0.054,4.816 -0.171,7.256 z m 11.727,-22.011 c 0,0 -1.41,-8.021 -10.609,-11.028 H 98.045889 c -3.111,5.069 -3.994,10.169 -4.158,14.958 h 32.827001 c 0.422,-3.2 0.882,-3.93 13.425,-3.93 z m -17.18,60.956 h 3.215 l -1.607,-4.005 z M 94.234889,62.993 c -4.468,0 -8.332,3.095 -10.174,8.99 h 18.815001 c -0.538,-5.756 -2.372,-8.99 -8.641001,-8.99 z"
     id="path4"
     inkscape:connector-curvature="0" />
  <path
     d="m 48.578889,57.393 v 4.692 c 0,5.467 4.432,9.898 9.898,9.898 h 20.144 c 2.656,-7.672 9.02,-10.481 14.777,-10.481 1.289,0 2.462,0.19 3.528,0.541 7.059001,1.387 7.431001,-0.403 7.444001,-0.699 v -0.041 c 0,0 0.002,0.017 0,0.041 v 3.188 l 0.001,7.451 h 16.58 l 5.018,-12.498 5.016,12.498 h 38.053 c 5.468,0 9.898,-4.432 9.898,-9.897 v -4.692 z m 34.33,22.987 c 0,4.689 0.603,8.214 1.647,10.814 h 16.436001 v -6.345 h -2.832001 v -1.271 h 10.979001 v 1.271 h -3.08 v 6.345 h 7.184 l 5.854,-14.591 H 83.115889 a 33.418,33.418 0 0 0 -0.207,3.777 z m 34.403001,5.684 h 14.511 l -3.795,-9.46 h -6.921 z m -2.06,5.131 h 18.631 l -1.549,-3.859 h -15.533 z m 40.605,-14.591 h -23.02 l 5.854,14.591 h 17.148 c 4.148,-1.933 7.025,-6.136 7.025,-11.014 v -3.577 z m -78.288001,0 h -12.922 v 3.577 c 0,4.878 2.876,9.081 7.025,11.014 h 8.291 c -1.603,-2.824 -2.619,-6.406 -2.619,-10.814 10e-4,-1.343 0.079,-2.6 0.225,-3.777 z m 21.48,19.077 h -11.359 c 1.848,1.508 4.106,2.086 6.545,2.086 1.948,0 3.542,-0.756 4.814,-2.086 z"
     id="path6"
     inkscape:connector-curvature="0" />
  <path
     d="m 140.49089,95.681 0.707,1.766 h 3.556 v 1.27 h -13.083 v -1.27 h 4.721 l -0.707,-1.766 h -22.234 l -0.707,1.766 h 3.154 v 1.27 h -8.298 v -1.27 h 3.135 l 0.707,-1.766 h -5.382 v 3.577 c 0,0 -1.491,-4.074 -6.969001,-1.455 a 0.017,0.017 0 0 0 0.002,-0.005 c -1.629,1.1 -3.531,1.715 -5.695,1.715 -3.122,0 -6.752,-1.229 -9.771,-3.832 h -3.317 c -0.048,0.489 -0.073,0.988 -0.073,1.489 0,5.702 3.17,10.646 7.807,13.102 h 51.424001 c 4.638,-2.456 7.808,-7.399 7.808,-13.102 0,-0.501 -0.023,-1 -0.072,-1.489 z"
     id="path8"
     inkscape:connector-curvature="0" />
</svg>
